<mxfile host="app.diagrams.net" modified="2022-08-09T07:28:41.755Z" agent="5.0 (Macintosh; Intel Mac OS X 10_15_7) AppleWebKit/537.36 (KHTML, like Gecko) Chrome/104.0.0.0 Safari/537.36" etag="er_5fOVMzmo81TfAoer2" version="20.2.3" type="github">
  <diagram id="N0jqqYIHz5CeWSWJPUnd" name="第 1 页">
    <mxGraphModel dx="1796" dy="613" grid="1" gridSize="10" guides="1" tooltips="1" connect="1" arrows="1" fold="1" page="1" pageScale="1" pageWidth="850" pageHeight="1100" math="0" shadow="0">
      <root>
        <mxCell id="0" />
        <mxCell id="1" parent="0" />
        <mxCell id="4qcwHTxCA__GrA8Y4_P4-29" value="" style="rounded=0;whiteSpace=wrap;html=1;labelBackgroundColor=none;fillColor=#f5f5f5;fontColor=#333333;strokeColor=#666666;" vertex="1" parent="1">
          <mxGeometry x="-330" y="60" width="1160" height="490" as="geometry" />
        </mxCell>
        <mxCell id="4qcwHTxCA__GrA8Y4_P4-22" value="" style="rounded=1;whiteSpace=wrap;html=1;labelBackgroundColor=none;" vertex="1" parent="1">
          <mxGeometry x="425" y="120" width="195" height="380" as="geometry" />
        </mxCell>
        <mxCell id="4qcwHTxCA__GrA8Y4_P4-12" value="" style="rounded=0;whiteSpace=wrap;html=1;labelBackgroundColor=none;" vertex="1" parent="1">
          <mxGeometry x="-300" y="90" width="640" height="430" as="geometry" />
        </mxCell>
        <mxCell id="4qcwHTxCA__GrA8Y4_P4-1" value="XML Fragment" style="swimlane;" vertex="1" parent="1">
          <mxGeometry x="120" y="110" width="210" height="200" as="geometry" />
        </mxCell>
        <mxCell id="4qcwHTxCA__GrA8Y4_P4-2" value="&lt;div style=&quot;color: rgb(212, 212, 212); font-family: Menlo, Monaco, &amp;quot;Courier New&amp;quot;, monospace; line-height: 18px;&quot;&gt;&lt;div style=&quot;&quot;&gt;&lt;span style=&quot;background-color: rgb(255, 255, 255);&quot;&gt;&lt;span style=&quot;color: rgb(128, 128, 128);&quot;&gt;&amp;lt;&lt;/span&gt;&lt;span style=&quot;color: rgb(86, 156, 214);&quot;&gt;pic:blipFill&lt;/span&gt;&lt;span style=&quot;color: rgb(128, 128, 128);&quot;&gt;&amp;gt;&lt;/span&gt;&lt;/span&gt;&lt;/div&gt;&lt;div style=&quot;&quot;&gt;    &lt;span style=&quot;background-color: rgb(255, 255, 255);&quot;&gt;&lt;span style=&quot;color: #808080;&quot;&gt;&amp;lt;&lt;/span&gt;&lt;span style=&quot;color: #569cd6;&quot;&gt;a:blip&lt;/span&gt;&amp;nbsp;&lt;/span&gt;&lt;/div&gt;&lt;div style=&quot;&quot;&gt;&lt;span style=&quot;background-color: rgb(255, 255, 255);&quot;&gt;&lt;span style=&quot;color: #9cdcfe;&quot;&gt;&amp;nbsp;r:embed&lt;/span&gt;=&lt;span style=&quot;color: #ce9178;&quot;&gt;&quot;rId4&quot;&lt;/span&gt;&amp;nbsp;&lt;/span&gt;&lt;/div&gt;&lt;div style=&quot;&quot;&gt;&lt;span style=&quot;background-color: rgb(255, 255, 255);&quot;&gt;&lt;span style=&quot;color: #9cdcfe;&quot;&gt;&amp;nbsp;cstate&lt;/span&gt;=&lt;span style=&quot;color: #ce9178;&quot;&gt;&quot;print&quot;&lt;/span&gt;&lt;span style=&quot;color: #808080;&quot;&gt;/&amp;gt;&lt;/span&gt;&lt;/span&gt;&lt;/div&gt;&lt;div style=&quot;&quot;&gt;    &lt;span style=&quot;background-color: rgb(255, 255, 255);&quot;&gt;&lt;span style=&quot;color: #808080;&quot;&gt;&amp;nbsp;&amp;lt;&lt;/span&gt;&lt;span style=&quot;color: #569cd6;&quot;&gt;a:stretch&lt;/span&gt;&lt;span style=&quot;color: #808080;&quot;&gt;&amp;gt;&lt;/span&gt;&lt;/span&gt;&lt;/div&gt;&lt;div style=&quot;&quot;&gt;        &lt;span style=&quot;background-color: rgb(255, 255, 255);&quot;&gt;&lt;span style=&quot;color: #808080;&quot;&gt;&amp;nbsp; &amp;lt;&lt;/span&gt;&lt;span style=&quot;color: #569cd6;&quot;&gt;a:fillRect&lt;/span&gt;&lt;span style=&quot;color: #808080;&quot;&gt;/&amp;gt;&lt;/span&gt;&lt;/span&gt;&lt;/div&gt;&lt;div style=&quot;&quot;&gt;    &lt;span style=&quot;background-color: rgb(255, 255, 255);&quot;&gt;&lt;span style=&quot;color: #808080;&quot;&gt;&amp;nbsp;&amp;lt;/&lt;/span&gt;&lt;span style=&quot;color: #569cd6;&quot;&gt;a:stretch&lt;/span&gt;&lt;span style=&quot;color: #808080;&quot;&gt;/&amp;gt;&lt;/span&gt;&lt;/span&gt;&lt;/div&gt;&lt;div style=&quot;&quot;&gt;&lt;span style=&quot;background-color: rgb(255, 255, 255);&quot;&gt;&lt;span style=&quot;color: rgb(128, 128, 128);&quot;&gt;&amp;lt;/&lt;/span&gt;&lt;span style=&quot;color: rgb(86, 156, 214);&quot;&gt;pic:blipFill&lt;/span&gt;&lt;span style=&quot;color: rgb(128, 128, 128);&quot;&gt;&amp;gt;&lt;/span&gt;&lt;/span&gt;&lt;/div&gt;&lt;/div&gt;" style="text;html=1;align=left;verticalAlign=middle;resizable=0;points=[];autosize=1;strokeColor=none;fillColor=none;" vertex="1" parent="4qcwHTxCA__GrA8Y4_P4-1">
          <mxGeometry x="30" y="30" width="150" height="160" as="geometry" />
        </mxCell>
        <mxCell id="4qcwHTxCA__GrA8Y4_P4-4" value="word/media/image1.png" style="shape=document;whiteSpace=wrap;html=1;boundedLbl=1;labelBackgroundColor=#FFFFFF;fillColor=#e1d5e7;strokeColor=#9673a6;" vertex="1" parent="1">
          <mxGeometry x="120" y="420" width="160" height="80" as="geometry" />
        </mxCell>
        <mxCell id="4qcwHTxCA__GrA8Y4_P4-5" value="rels XML Fragment" style="swimlane;" vertex="1" parent="1">
          <mxGeometry x="-280" y="210" width="270" height="200" as="geometry" />
        </mxCell>
        <mxCell id="4qcwHTxCA__GrA8Y4_P4-6" value="&lt;div style=&quot;color: rgb(212, 212, 212); font-family: Menlo, Monaco, &amp;quot;Courier New&amp;quot;, monospace; line-height: 18px;&quot;&gt;&lt;div style=&quot;&quot;&gt;&lt;br&gt;&lt;/div&gt;&lt;/div&gt;" style="text;html=1;align=left;verticalAlign=middle;resizable=0;points=[];autosize=1;strokeColor=none;fillColor=none;" vertex="1" parent="4qcwHTxCA__GrA8Y4_P4-5">
          <mxGeometry x="30" y="95" width="20" height="30" as="geometry" />
        </mxCell>
        <mxCell id="4qcwHTxCA__GrA8Y4_P4-7" value="&lt;span style=&quot;font-size: 14px; font-family: Courier, monospace; background-color: rgb(255, 255, 255);&quot; class=&quot;codeFragment&quot;&gt;&amp;lt;Relationship &lt;br&gt;Id=&quot;rID4&quot; &lt;br&gt;Type=&quot;http://schemas.openxml&lt;br&gt;formats.org&lt;br&gt;/officeDocument/2006&lt;br&gt;/relationships/image&quot; &lt;br&gt;Target=&quot;media/image1.jpg/&quot;&amp;gt;&lt;/span&gt;" style="text;html=1;align=left;verticalAlign=middle;resizable=0;points=[];autosize=1;strokeColor=none;fillColor=none;" vertex="1" parent="4qcwHTxCA__GrA8Y4_P4-5">
          <mxGeometry x="10" y="35" width="260" height="130" as="geometry" />
        </mxCell>
        <mxCell id="4qcwHTxCA__GrA8Y4_P4-9" value="" style="curved=1;endArrow=classic;html=1;rounded=0;exitX=1;exitY=0.7;exitDx=0;exitDy=0;exitPerimeter=0;entryX=-0.006;entryY=0.35;entryDx=0;entryDy=0;entryPerimeter=0;" edge="1" parent="1" source="4qcwHTxCA__GrA8Y4_P4-7" target="4qcwHTxCA__GrA8Y4_P4-4">
          <mxGeometry width="50" height="50" relative="1" as="geometry">
            <mxPoint x="-10" y="263.98" as="sourcePoint" />
            <mxPoint x="120" y="200" as="targetPoint" />
            <Array as="points">
              <mxPoint x="20" y="400" />
            </Array>
          </mxGeometry>
        </mxCell>
        <mxCell id="4qcwHTxCA__GrA8Y4_P4-11" value="" style="curved=1;endArrow=classic;html=1;rounded=0;exitX=0;exitY=0.25;exitDx=0;exitDy=0;entryX=1.004;entryY=0.292;entryDx=0;entryDy=0;entryPerimeter=0;" edge="1" parent="1" source="4qcwHTxCA__GrA8Y4_P4-1" target="4qcwHTxCA__GrA8Y4_P4-7">
          <mxGeometry width="50" height="50" relative="1" as="geometry">
            <mxPoint x="-20" y="340" as="sourcePoint" />
            <mxPoint x="30" y="290" as="targetPoint" />
            <Array as="points">
              <mxPoint x="40" y="190" />
            </Array>
          </mxGeometry>
        </mxCell>
        <mxCell id="4qcwHTxCA__GrA8Y4_P4-16" value="Read XML MODULES" style="rounded=0;whiteSpace=wrap;html=1;labelBackgroundColor=none;" vertex="1" parent="1">
          <mxGeometry x="450" y="180" width="140" height="60" as="geometry" />
        </mxCell>
        <mxCell id="4qcwHTxCA__GrA8Y4_P4-17" value="" style="endArrow=classic;html=1;rounded=0;exitX=0;exitY=0.5;exitDx=0;exitDy=0;entryX=1;entryY=0.5;entryDx=0;entryDy=0;" edge="1" parent="1" source="4qcwHTxCA__GrA8Y4_P4-16" target="4qcwHTxCA__GrA8Y4_P4-1">
          <mxGeometry width="50" height="50" relative="1" as="geometry">
            <mxPoint x="160" y="340" as="sourcePoint" />
            <mxPoint x="210" y="290" as="targetPoint" />
          </mxGeometry>
        </mxCell>
        <mxCell id="4qcwHTxCA__GrA8Y4_P4-21" style="edgeStyle=orthogonalEdgeStyle;rounded=0;orthogonalLoop=1;jettySize=auto;html=1;exitX=0.5;exitY=1;exitDx=0;exitDy=0;entryX=0.5;entryY=0;entryDx=0;entryDy=0;" edge="1" parent="1" source="4qcwHTxCA__GrA8Y4_P4-18" target="4qcwHTxCA__GrA8Y4_P4-20">
          <mxGeometry relative="1" as="geometry" />
        </mxCell>
        <mxCell id="4qcwHTxCA__GrA8Y4_P4-18" value="upload Service" style="rounded=0;whiteSpace=wrap;html=1;labelBackgroundColor=none;" vertex="1" parent="1">
          <mxGeometry x="450" y="290" width="140" height="60" as="geometry" />
        </mxCell>
        <mxCell id="4qcwHTxCA__GrA8Y4_P4-19" value="" style="curved=1;endArrow=classic;html=1;rounded=0;exitX=1.006;exitY=0.363;exitDx=0;exitDy=0;exitPerimeter=0;entryX=0;entryY=0.5;entryDx=0;entryDy=0;" edge="1" parent="1" source="4qcwHTxCA__GrA8Y4_P4-4" target="4qcwHTxCA__GrA8Y4_P4-18">
          <mxGeometry width="50" height="50" relative="1" as="geometry">
            <mxPoint x="160" y="340" as="sourcePoint" />
            <mxPoint x="210" y="300" as="targetPoint" />
            <Array as="points">
              <mxPoint x="350" y="350" />
            </Array>
          </mxGeometry>
        </mxCell>
        <mxCell id="4qcwHTxCA__GrA8Y4_P4-20" value="Format JSON" style="rounded=0;whiteSpace=wrap;html=1;labelBackgroundColor=none;" vertex="1" parent="1">
          <mxGeometry x="450" y="410" width="140" height="60" as="geometry" />
        </mxCell>
        <mxCell id="4qcwHTxCA__GrA8Y4_P4-23" value="NodeJS" style="text;html=1;strokeColor=none;fillColor=none;align=center;verticalAlign=middle;whiteSpace=wrap;rounded=0;labelBackgroundColor=none;" vertex="1" parent="1">
          <mxGeometry x="450" y="120" width="60" height="30" as="geometry" />
        </mxCell>
        <mxCell id="4qcwHTxCA__GrA8Y4_P4-26" value="" style="shape=flexArrow;endArrow=classic;html=1;rounded=0;exitX=1.01;exitY=0.484;exitDx=0;exitDy=0;exitPerimeter=0;entryX=-0.008;entryY=0.367;entryDx=0;entryDy=0;entryPerimeter=0;" edge="1" parent="1" source="4qcwHTxCA__GrA8Y4_P4-22">
          <mxGeometry width="50" height="50" relative="1" as="geometry">
            <mxPoint x="540" y="230" as="sourcePoint" />
            <mxPoint x="720.9760000000001" y="302.976" as="targetPoint" />
          </mxGeometry>
        </mxCell>
        <mxCell id="4qcwHTxCA__GrA8Y4_P4-27" value="front end" style="rounded=1;whiteSpace=wrap;html=1;labelBackgroundColor=none;" vertex="1" parent="1">
          <mxGeometry x="730" y="120" width="60" height="380" as="geometry" />
        </mxCell>
      </root>
    </mxGraphModel>
  </diagram>
</mxfile>
